<?xml version="1.0" encoding="utf-8"?>
<!-- Generator: Adobe Illustrator 23.0.3, SVG Export Plug-In . SVG Version: 6.00 Build 0)  -->
<svg version="1.1" id="Lager_1" xmlns="http://www.w3.org/2000/svg" xmlns:xlink="http://www.w3.org/1999/xlink" x="0px" y="0px"
	 viewBox="0 0 1920 1080" style="enable-background:new 0 0 1920 1080;" xml:space="preserve">
<style type="text/css">
	.st0{fill:url(#SVGID_1_);stroke:#000000;stroke-miterlimit:10;}
	.st1{fill:#FFFFFF;stroke:#000000;stroke-miterlimit:10;}
	.st2{stroke:#000000;stroke-miterlimit:10;}
	.st3{fill:none;stroke:#000000;stroke-width:5;stroke-miterlimit:10;}
	.st4{fill:#FFFFFF;stroke:#000000;stroke-width:5;stroke-miterlimit:10;}
</style>
<radialGradient id="SVGID_1_" cx="821.5504" cy="519.1624" r="492.6073" gradientUnits="userSpaceOnUse">
	<stop  offset="0" style="stop-color:#FFFFFF"/>
	<stop  offset="0.0851" style="stop-color:#FFEDD8"/>
	<stop  offset="0.2082" style="stop-color:#FFD5A7"/>
	<stop  offset="0.3345" style="stop-color:#FFC17D"/>
	<stop  offset="0.462" style="stop-color:#FFB05B"/>
	<stop  offset="0.591" style="stop-color:#FFA340"/>
	<stop  offset="0.7222" style="stop-color:#FF9A2D"/>
	<stop  offset="0.8568" style="stop-color:#FF9522"/>
	<stop  offset="1" style="stop-color:#FF931E"/>
</radialGradient>
<path class="st0" d="M509.5,155.5c0,0-91-91-142-61s-20,154-20,154s18,53,65,88l-4,8c0,0,60,41,31,66c0,0-52,70-15,152
	c0,0,5,32,121,114c0,0,13,23,20,66c0,0,74,107,63,110c0,0,8,61,7,71s15,60,85,89c0,0,54,20,202-2c0,0,88-27,85-111c0,0-10-59,63-149
	c0,0,15-66,23-73s127-77,130-140c0,0,22-39-1-86c0,0-65-55,10-107l-5-14c0,0,35-16,68-86c0,0,30-89-17-152c0,0-61-23-148,64
	c0,0-49-37-182-71c0,0-60-67-134-68c0,0-72,12-119,68c0,0-152,33-190,71"/>
<path class="st1" d="M959.5,398.5c0,0,11-2,41-27c0,0,31-23,60-38s-64-19-64-19s-61.01-0.74-85,29c-25,31,18,51,18,51
	S952.5,402.5,959.5,398.5z"/>
<path class="st1" d="M683.29,399.5c0,0-11-2-41-27c0,0-31-23-60-38s64-19,64-19s61.01-0.74,85,29c25,31-18,51-18,51
	S690.29,403.5,683.29,399.5z"/>
<path class="st1" d="M647.5,640.5c0,0,138,39,182-15c0,0,47,53,191,15c0,0,18,2-4,22s-50,46-56,118s-13,106-49,123c0,0-21,4-38-5
	c-10.45-5.53-22.71-17.2-40-17c-10.85,0.13-26.04,6.59-43,17c-48.25,29.61-79-37-83-78s-1-110-55-154
	C652.5,666.5,622.5,642.5,647.5,640.5z"/>
<path class="st2" d="M929.5,727.5c0,0,32-31,29-71c0,0-24,0-31,9S931.5,717.5,929.5,727.5z"/>
<path class="st2" d="M718.34,725.5c0,0-32-31-29-71c0,0,24,0,31,9S716.34,715.5,718.34,725.5z"/>
<path class="st2" d="M789.5,779.5c0,0-8,12,3,43s8,37,4,44s-20,17-42,7S765.5,790.5,789.5,779.5z"/>
<path class="st2" d="M873.9,775.5c0,0,8,12-3,43s-8,37-4,44s20,17,42,7S897.9,786.5,873.9,775.5z"/>
<path class="st2" d="M797.5,579.5c0,0,29,8,47-4s30-27,48-50c0,0,8-31-29-29c0,0-11,1-34,26c0,0-14,7-27-2c0,0-20-20-35-24
	c0,0-32,3-19,32C748.5,528.5,743.5,529.5,797.5,579.5z"/>
<path class="st3" d="M967.5,564.5c0,0,366-159,487-77"/>
<path class="st3" d="M1009.19,571.45c0,0,382.65-113.21,492.75-17.08"/>
<path class="st3" d="M1012.63,586.22c0,0,393.59-65.73,491.16,43.1"/>
<path class="st3" d="M633.79,585.22c0,0-393.59-65.73-491.16,43.1"/>
<path class="st3" d="M636.66,569.18c0,0-382.65-113.21-492.75-17.08"/>
<path class="st3" d="M670.36,564.35c0,0-366-159-487-77"/>
<circle class="st4" cx="685.5" cy="361.5" r="21"/>
<circle class="st4" cx="955.5" cy="361.5" r="21"/>
</svg>
